<?xml version="1.0" encoding="UTF-8"?>
<svg xmlns="http://www.w3.org/2000/svg" xmlns:xlink="http://www.w3.org/1999/xlink" width="57.091pt" height="31.58pt" viewBox="0 0 57.091 31.58" version="1.1">
<defs>
<clipPath id="clip1">
  <path d="M 0 0 L 57.089844 0 L 57.089844 31.578125 L 0 31.578125 Z M 0 0 "/>
</clipPath>
</defs>
<g id="surface1">
<path style="fill:none;stroke-width:0.3985;stroke-linecap:butt;stroke-linejoin:miter;stroke:rgb(0%,0%,0%);stroke-opacity:1;stroke-miterlimit:10;" d="M 4.761938 31.181781 L 20.160375 31.181781 L 20.160375 16.298969 " transform="matrix(1,0,0,-1,0.199,31.381)"/>
<path style="fill:none;stroke-width:0.797;stroke-linecap:butt;stroke-linejoin:miter;stroke:rgb(0%,0%,0%);stroke-opacity:1;stroke-miterlimit:10;" d="M 16.652562 16.298969 L 40.039281 16.298969 M 20.160375 12.728656 L 36.531469 12.728656 " transform="matrix(1,0,0,-1,0.199,31.381)"/>
<path style="fill:none;stroke-width:0.3985;stroke-linecap:butt;stroke-linejoin:miter;stroke:rgb(0%,0%,0%);stroke-opacity:1;stroke-miterlimit:10;" d="M 36.531469 16.298969 L 36.531469 31.181781 L 51.933813 31.181781 " transform="matrix(1,0,0,-1,0.199,31.381)"/>
<path style="fill:none;stroke-width:0.3985;stroke-linecap:butt;stroke-linejoin:miter;stroke:rgb(0%,0%,0%);stroke-opacity:1;stroke-miterlimit:10;" d="M 28.347875 12.728656 L 28.347875 1.216937 " transform="matrix(1,0,0,-1,0.199,31.381)"/>
<path style="fill-rule:nonzero;fill:rgb(0%,0%,0%);fill-opacity:1;stroke-width:0.3985;stroke-linecap:butt;stroke-linejoin:miter;stroke:rgb(0%,0%,0%);stroke-opacity:1;stroke-miterlimit:10;" d="M 28.347875 12.728656 C 27.406469 12.728656 26.64475 11.966937 26.64475 11.029437 C 26.64475 10.088031 27.406469 9.326312 28.347875 9.326312 C 29.285375 9.326312 30.047094 10.088031 30.047094 11.029437 C 30.047094 11.966937 29.285375 12.728656 28.347875 12.728656 Z M 28.347875 12.728656 " transform="matrix(1,0,0,-1,0.199,31.381)"/>
<g clip-path="url(#clip1)" clip-rule="nonzero">
<path style="fill:none;stroke-width:0.3985;stroke-linecap:butt;stroke-linejoin:miter;stroke:rgb(0%,0%,0%);stroke-opacity:1;stroke-miterlimit:10;" d="M 51.734594 31.181781 L 56.695531 31.181781 M 28.347875 1.416156 L 28.347875 -0.0018125 M 4.961156 31.181781 L 0.00021875 31.181781 " transform="matrix(1,0,0,-1,0.199,31.381)"/>
</g>
</g>
</svg>
